<svg xmlns="http://www.w3.org/2000/svg" width="314.755" height="392.368" viewBox="0 0 314.755 392.368">
  <g id="Group_18" data-name="Group 18" transform="matrix(-0.995, 0.105, -0.105, -0.995, 239.009, 330.6)">
    <path id="Path_51" data-name="Path 51" d="M165.7,182.956a49.641,49.641,0,0,0-2.962,6.652c-5.592,15.824,2.935,33.285,1.656,49.585-1.217,15.521-6.631,31.48-17.854,41.886-18.45,17.11-46.356,21.8-58.011,20.961s-52.774-23.1-61.289-38.8S-1.547,213.376.094,171.579,7.762,122.67,9.185,93.43s4.745-46.6,36.393-74.5S110.4-.7,131.674,10.06s31.824,17.388,34.65,25.976,18.217,34.012,20.357,42.55c3.806,15.188,2.208,34.06.4,49.445-2.136,18.207-6.986,31.826-16.655,46.986C168.779,177.606,167.146,180.228,165.7,182.956Z" transform="matrix(0.914, -0.407, 0.407, 0.914, -78.753, 24.64)" fill="#f39163"/>
    <path id="Path_49" data-name="Path 49" d="M71.65,182.331s-3.846-11.4,2.555-18.225,16.558-17.927,11.853-28.221S70.044,117.559,64.764,115.2s-27.717-3.814-34.559-.167S7.709,126.214.153,141.46s-6.317,19.15-11.481,29.879-7.146,17.664,1.214,34.8,24.542,21.762,36,22.784,17.4,1.068,20.338-1.343,14.722-7.948,17.351-10.5S80.22,197.33,71.65,182.331Z" transform="translate(18.337 102.698)" fill="none" stroke="#fdc9a1" stroke-miterlimit="10" stroke-width="1"/>
    <path id="Path_50" data-name="Path 50" d="M-14.151,165.081s5.378,8.987,1.2,15.974-10.768,18.31-4.864,26.2S-.807,219.878,4.118,220.908s24.278-1.881,29.425-6.249,17.066-13.668,20.673-28.032,1.834-17.457,4.242-27.537,2.812-16.346-7.466-29.378-24.9-13.971-34.834-12.721-15,2.308-17.051,4.9-11.053,9.482-12.816,12.137S-24.214,153.909-14.151,165.081Z" transform="translate(14.418 106.065)" fill="none" stroke="#fdc9a1" stroke-miterlimit="10" stroke-width="1"/>
  </g>
</svg>
