<svg xmlns="http://www.w3.org/2000/svg" width="284.677" height="265.74" viewBox="0 0 284.677 265.74">
  <g id="Group_34" data-name="Group 34" transform="translate(-1078.004 -439.142)">
    <path id="Path_1" data-name="Path 1" d="M409.3,317.712s14.891-16.769,11.188-38.081-5.148-59.506,17.558-61.184,51.9-.076,71.121,8.025,51.578,49.173,56.133,71.12,18.073,78.395-1.472,102.529-28.929,34.17-41.573,51.063-51.621,18.845-70.042-10.317-34.99-47.666-46.989-61.229S396.584,329.91,409.3,317.712Z" transform="translate(1413.846 -3.284) rotate(74)" fill="#c7677a"/>
    <g id="Group_1" data-name="Group 1" transform="translate(1115.112 592.844)">
      <path id="Path_7" data-name="Path 7" d="M407.536,272.915c-.282,12.042-.159,24.086.114,36.127.014,6.035.855,12.066,1.03,18.057.071,1.5.072,3,.036,4.489-.058,1.5-.17,2.987-.371,4.474-.076.747-.235,1.479-.338,2.236l-.065.589-.051.569-.085,1.13-.269,4.518-.376,9.029c-.078,3.012-.192,6.02-.219,9.032-.018.965-.025,1.931-.034,2.9q1.348.068,2.71.117c.121-.994.244-1.989.358-2.983.372-3.006.658-6.015.993-9.021l.882-9.021.4-4.511.107-1.125.051-.559.063-.537c.1-.747.275-1.515.356-2.271a47.894,47.894,0,0,0,.117-9.09c-.235-3.023-.653-6.031-1.023-9.036s-.669-5.995-.824-9.007c-.707-12.033-1.258-24.068-1.41-36.1q-.065-3.5-.076-7a40.006,40.006,0,0,0-1.627-4.118Q407.7,267.354,407.536,272.915Z" transform="translate(-334.379 -254.177)" fill="#fdc9a1"/>
      <path id="Path_8" data-name="Path 8" d="M399.541,361.468c.347-2.771.6-5.545.891-8.318l.7-8.323.26-4.162.19-4.164c.085-2.777.116-5.552.143-8.329-.032-5.554-.134-11.108-.336-16.66-.38-11.1-1.067-22.2-1.819-33.3-.483-6.5-.982-13.009-1.459-19.512-.383.212-.761.438-1.132.674.136,6.286.293,12.57.434,18.854.32,11.1.577,22.193.522,33.288q-.049,8.317-.483,16.634l-.362,8.318-.275,8.32-.193,8.322c-.033,2.773-.116,5.548-.118,8.323q-.027,3.037-.014,6.078,1.134.065,2.269.127Q399.176,364.558,399.541,361.468Z" transform="translate(-342.797 -256.673)" fill="#fdc9a1"/>
      <path id="Path_9" data-name="Path 9" d="M420.558,335.649c.13-6.219.311-12.44.589-18.657s.678-12.435,1.092-18.654l1.273-18.661c.034-.707.065-1.414.1-2.122a17.329,17.329,0,0,0-4.133-2.455c-.052-.023-.1-.043-.157-.067l-.081,4.619c-.074,6.217-.264,12.438-.452,18.659s-.378,12.444-.445,18.668-.027,12.447.058,18.668l.441,18.5c.439-.108.877-.221,1.311-.344Z" transform="translate(-325.167 -243.482)" fill="#fdc9a1"/>
      <path id="Path_10" data-name="Path 10" d="M426.929,326.253q.35-6.31.531-12.626.095-4.041.128-8.083c-.727-1.294-1.472-2.58-2.144-3.867-.156-.295-.3-.595-.445-.893q.217,6.422.3,12.841.13,7.024.06,14.051C425.908,327.228,426.432,326.754,426.929,326.253Z" transform="translate(-319.764 -222.678)" fill="#fdc9a1"/>
      <path id="Path_11" data-name="Path 11" d="M406.339,312.394a104.329,104.329,0,0,1-.745-13.948q.212-6.994.031-13.986l-.249-6.993c-.127-2.33-.212-4.661-.383-6.993-.271-4.267-.624-8.531-1.152-12.8-.233-.042-.47-.069-.705-.094-.541,4.3-.9,8.6-1.179,12.9-.174,2.33-.26,4.663-.391,6.995l-.257,6.995q-.193,6.994.013,13.989c.1,2.336.293,4.679.586,7.013.269,2.336.613,4.666.984,6.995.716,4.657,1.529,9.305,2.01,13.953.262,2.325.391,4.65.445,6.973l0,1.743c0,.582-.04,1.162-.058,1.743l-.063,1.752-.013,1.754c.063,4.666.228,9.329.385,13.991s.351,9.325.571,13.987l.432,0c.255-9.323.363-18.652.768-27.97l.094-1.745.145-1.743c.045-.584.112-1.17.139-1.754l.076-1.754c.056-2.338.033-4.677-.121-7.013C407.438,321.71,406.838,317.047,406.339,312.394Z" transform="translate(-338.977 -257.581)" fill="#fdc9a1"/>
      <path id="Path_12" data-name="Path 12" d="M415.925,355.89c.172-3.11.259-6.221.387-9.332l.253-9.33.327-18.65c.076-6.219.264-12.438.452-18.661s.378-12.444.445-18.668q.035-3.517.029-7.034a25.135,25.135,0,0,1-2.522-1.134q-.133,4.079-.311,8.157c-.282,6.217-.676,12.435-1.092,18.654l-1.273,18.661c-.152,3.111-.3,6.223-.383,9.336-.018,1.557-.052,3.113-.042,4.67l.054,4.67.253,9.33c.128,3.111.213,6.223.387,9.332.018.4.043.8.063,1.208q1.464-.052,2.918-.161C415.887,356.587,415.908,356.239,415.925,355.89Z" transform="translate(-330.11 -245.06)" fill="#fdc9a1"/>
      <path id="Path_13" data-name="Path 13" d="M390.727,356.2l.371-16.166.163-9.419-.2-9.419-.432-18.833-.345-18.834-.268-9.415.051-4.08a56.937,56.937,0,0,1-4.505,4.811l.45,8.687,1.166,18.838L388.26,321.2l.519,9.417.163,9.417.354,15.483Q390,355.9,390.727,356.2Z" transform="translate(-351.623 -247.522)" fill="#fdc9a1"/>
      <path id="Path_14" data-name="Path 14" d="M375.37,325.354c-.32-11.1-.577-22.193-.524-33.286q.03-4.648.183-9.294c-1.318,1.211-2.591,2.47-3.8,3.773q.07,2.766.166,5.528c.38,11.1,1.067,22.2,1.819,33.3.052.725.109,1.45.163,2.173.678.237,1.365.445,2.059.635Q375.4,326.768,375.37,325.354Z" transform="translate(-363.205 -237.229)" fill="#fdc9a1"/>
      <path id="Path_15" data-name="Path 15" d="M366.956,301.512q-.184,6.061-.065,12.122a18.289,18.289,0,0,0,4.2,5.924l.15-4.068q.193-7-.013-13.989c-.1-2.336-.293-4.681-.586-7.013-.235-2.036-.531-4.066-.848-6.1a34.476,34.476,0,0,0-3,5.726C366.947,296.583,367.025,299.048,366.956,301.512Z" transform="translate(-366.79 -232.69)" fill="#fdc9a1"/>
      <path id="Path_16" data-name="Path 16" d="M390.634,277.489c-.175,4.82-.271,9.645-.212,14.467s.215,9.643.43,14.461l.629,14.456.7,14.438L393,349.755c.26,4.048.566,8.1,1.021,12.149.318.033.638.065.958.092.472-4.08.81-8.161,1.056-12.241.17-2.41.239-4.82.34-7.231.072-2.41.094-4.822.116-7.233a141.965,141.965,0,0,0-.741-14.467c-.512-4.814-1.009-9.629-1.448-14.443s-.8-9.627-1.078-14.439-.394-9.629-.436-14.445l-.419-12.454q-.74,1.158-1.475,2.32Z" transform="translate(-347.713 -251.553)" fill="#fdc9a1"/>
      <path id="Path_17" data-name="Path 17" d="M377.184,281.655c.51,4.816,1.009,9.631,1.448,14.443s.8,9.627,1.077,14.441.394,9.627.436,14.445l.349,10.366a17.024,17.024,0,0,1,1.515.96l.293-11.321c.175-4.82.271-9.643.212-14.465s-.215-9.643-.43-14.463l-.629-14.456-.184-3.8c-1.385,1.068-2.771,2.133-4.144,3.211C377.146,281.23,377.16,281.444,377.184,281.655Z" transform="translate(-358.44 -241.24)" fill="#fdc9a1"/>
      <path id="Path_18" data-name="Path 18" d="M387.477,326.841l-.486-9.419-1.166-18.836-1.079-18.836-.278-5.04q-1.277,1.077-2.587,2.122l.061,2.925.432,18.834.345,18.833.268,9.417-.117,9.417.018,6.89c1.244,1.347,2.455,2.739,3.722,4.055.031-.508.06-1.014.094-1.522l.481-9.421C387.3,333.121,387.452,329.981,387.477,326.841Z" transform="translate(-354.599 -243.744)" fill="#fdc9a1"/>
    </g>
  </g>
</svg>
