<svg xmlns="http://www.w3.org/2000/svg" width="240.872" height="304" viewBox="0 0 240.872 304">
  <g id="Group_10" data-name="Group 10" transform="translate(65.246 68.468)">
    <path id="Path_31" data-name="Path 31" d="M134.849,159.033s-27.27,9.973-34.778,32.291S72.88,251.421,44.7,243.38s-62.324-22.04-80.839-38.111-34.315-69.825-27.475-93.121S-41.345,28.161-4.359,13,49.513-7.922,74.157-18.972s72.508,3.655,78.258,39.879,15.255,61.292,22.05,79.6S156.948,152.582,134.849,159.033Z" transform="translate(0 -45.896)" fill="#bde0dc"/>
    <g id="Group_9" data-name="Group 9" transform="translate(-16.946 139.894)">
      <path id="Path_32" data-name="Path 32" d="M34.8,146.273c-2.419-3.787-4.919-7.519-7.468-11.216L25.393,132.3c-.645-.918-1.315-1.818-1.971-2.727l-1.985-2.741-1.955-2.767c-5.144-7.4-10.219-14.846-15.3-22.284S-5.959,86.885-11,79.419l.271-.19C-.21,93.857,10.22,108.552,20.826,123.1l1.995,2.714,2.027,2.693c.677.9,1.371,1.8,2.036,2.711l1.995,2.737c2.632,3.671,5.216,7.378,7.714,11.137q.991,1.486,1.974,2.973c-.64.327-1.3.663-1.983,1.009Q35.693,147.672,34.8,146.273Z" transform="translate(31.073 -57.231)" fill="#c7677a" opacity="0.85"/>
      <path id="Path_33" data-name="Path 33" d="M26.917,148.839,13.31,128.669l-15.532-23.2C-7.378,97.72-12.506,89.945-17.472,82.055l.271-.19q8.61,11.018,16.882,22.27c2.783,3.734,5.506,7.515,8.247,11.279,2.723,3.778,5.413,7.579,8.106,11.383q7.821,11.147,15.217,22.595A32.594,32.594,0,0,1,26.917,148.839Z" transform="translate(22.533 -53.753)" fill="#c7677a" opacity="0.85"/>
      <path id="Path_34" data-name="Path 34" d="M48.735,155.472l-8.442-11.348q-5.326-7.278-10.611-14.591c-1.742-2.452-3.493-4.9-5.216-7.361l-5.151-7.4L9.107,99.906C5.733,94.931,2.33,89.977-1.016,84.984Q-6.064,77.515-11.05,70l-.155-.237a18.546,18.546,0,0,1,1.865.012Q-4.205,76.694.886,83.648c3.565,4.84,7.074,9.72,10.608,14.579l10.527,14.639L42.944,142.2q4.227,5.953,8.486,11.884C50.549,154.535,49.654,155,48.735,155.472Z" transform="translate(30.801 -69.744)" fill="#c7677a" opacity="0.85"/>
      <path id="Path_35" data-name="Path 35" d="M23.93,136.7l-9.414-13.03L5.153,110.6c-3.1-4.372-6.237-8.721-9.321-13.106q-6.728-9.5-13.352-19.083c.128-.394.255-.784.385-1.174q7.5,9.372,14.837,18.872c3.3,4.23,6.538,8.5,9.8,12.758l9.685,12.847,4.787,6.464,4.743,6.5q4.707,6.526,9.342,13.1,2.2,3.138,4.383,6.283a17,17,0,0,1-3.115,1q-1.962-2.693-3.929-5.381Z" transform="translate(22.468 -59.86)" fill="#c7677a" opacity="0.85"/>
      <path id="Path_36" data-name="Path 36" d="M35.312,140.166c-1.7-2.336-3.423-4.646-5.2-6.907-.879-1.15-1.791-2.233-2.7-3.386l-.7-.9-.661-.879-1.313-1.751-5.186-7.018L9.292,105.214C5.9,100.49,2.483,95.782-.878,91.036q-5.069-7.1-10.073-14.25l-3.662-5.279a9.029,9.029,0,0,1,.823-.733l4.052,5.112Q-4.356,82.751.989,89.649c3.574,4.588,7.095,9.217,10.643,13.823l10.576,13.872,5.262,6.949,1.315,1.73.654.86.638.823c.893,1.132,1.853,2.273,2.744,3.43,3.6,4.639,6.946,9.451,10.172,14.319,2.285,3.472,4.5,6.979,6.714,10.483-.867.448-1.765.914-2.7,1.4-2.224-3.377-4.455-6.74-6.731-10.059C38.657,144.879,36.994,142.513,35.312,140.166Z" transform="translate(26.305 -68.384)" fill="#c7677a" opacity="0.85"/>
      <path id="Path_37" data-name="Path 37" d="M49.433,150.659q-4.457-6.213-8.883-12.448-10.43-14.716-20.7-29.534L-6.337,70.657c.457.165.911.334,1.357.51L21.2,107.724q10.486,14.66,21.1,29.233,4.627,6.339,9.3,12.656Q50.5,150.138,49.433,150.659Z" transform="translate(37.223 -68.54)" fill="#c7677a" opacity="0.85"/>
      <path id="Path_38" data-name="Path 38" d="M11.8,130.23,1.438,115.273-19.246,85.266c.079-.45.16-.9.248-1.357L2.8,114.331l10.567,14.818L23.7,144.123l.492.712c-1.141-.364-2.28-.768-3.407-1.2Z" transform="translate(20.192 -51.057)" fill="#c7677a" opacity="0.85"/>
      <path id="Path_39" data-name="Path 39" d="M19.018,77.092c.728,1.591,1.51,3.305,2.368,5.135L14.342,72.182A11.7,11.7,0,0,1,19.018,77.092Z" transform="translate(64.505 -66.528)" fill="#c7677a" opacity="0.85"/>
      <path id="Path_40" data-name="Path 40" d="M48.985,143.78q-14.072-20.888-28.421-41.587Q10.391,87.487-.006,72.939c.408.009.809,0,1.206-.016Q11.672,87,21.916,101.239q14.632,20.418,28.931,41.073A16.035,16.035,0,0,1,48.985,143.78Z" transform="translate(45.576 -65.55)" fill="#c7677a" opacity="0.85"/>
      <path id="Path_41" data-name="Path 41" d="M6.842,129.41-3.693,114.578l-10.444-14.9q-2.714-3.91-5.432-7.816c-.051-.573-.086-1.132-.086-1.658,0-.886.037-1.8.1-2.746q3.91,5.26,7.8,10.534L-.991,112.672c3.56,4.912,7.143,9.808,10.648,14.76l6.128,9.11c-2.21-1.058-4.33-2.178-6.3-3.28Z" transform="translate(19.654 -46.37)" fill="#c7677a" opacity="0.85"/>
      <path id="Path_42" data-name="Path 42" d="M44.43,119.617q-5.719-8.426-11.559-16.776L11.1,70.965c.364.072.724.148,1.081.234l22.036,30.68q4.168,5.751,8.289,11.536A23.105,23.105,0,0,1,44.43,119.617Z" transform="translate(60.227 -68.134)" fill="#c7677a" opacity="0.85"/>
      <path id="Path_43" data-name="Path 43" d="M-2.8,118.268-16.887,97.642c-.566-1.264-1.09-2.526-1.563-3.771l19.178,26.7c-.705-.431-1.357-.83-1.944-1.185A14.863,14.863,0,0,1-2.8,118.268Z" transform="translate(21.242 -37.914)" fill="#c7677a" opacity="0.85"/>
      <path id="Path_44" data-name="Path 44" d="M26.485,101.135Q16.577,86.117,6.678,71.1c.32-.074.642-.141.972-.2q10.11,14.653,20.206,29.318,10.823,15.78,21.727,31.5-.372,1.4-.858,2.744Q37.547,117.833,26.485,101.135Z" transform="translate(54.394 -68.227)" fill="#c7677a" opacity="0.85"/>
      <path id="Path_45" data-name="Path 45" d="M45.772,134.409q-7.9-10.962-15.556-22.094L22.6,101.153c-2.509-3.741-5.047-7.461-7.528-11.221Q9.294,81.245,3.651,72.461c.325-.121.622-.241.891-.353Q10.849,80.29,16.982,88.6c2.7,3.609,5.344,7.255,8.016,10.884l7.932,10.942q7.89,10.973,15.53,22.117,1.343,1.98,2.66,3.98a27.989,27.989,0,0,1-1.765,2.973Q47.584,136.935,45.772,134.409Z" transform="translate(50.4 -66.626)" fill="#c7677a" opacity="0.85"/>
    </g>
  </g>
</svg>
