<svg id="thoughts-shape1" xmlns="http://www.w3.org/2000/svg" width="163.149" height="133.133" viewBox="0 0 163.149 133.133">
  <path id="Path_68" data-name="Path 68" d="M451.4,275.783s9.789,11.558,22.751,9.151,36.07-2.795,36.562,14.39-1.147,39.217-6.483,53.588-30.894,38.065-44.258,41.1-47.78,12.215-61.912-3-19.98-22.484-29.9-32.347-10.2-39.348,7.842-52.729,29.6-25.56,38.073-34.378S444.323,265.95,451.4,275.783Z" transform="translate(-361.407 -266.409)" fill="#c7677a"/>
  <g id="Group_25" data-name="Group 25" transform="translate(111.462 66.861)">
    <path id="Path_69" data-name="Path 69" d="M370.937,280.252c-.134,5.773-.076,11.546.056,17.318.006,2.892.409,5.784.493,8.655.034.719.035,1.436.017,2.152s-.081,1.432-.177,2.145c-.036.358-.113.709-.162,1.072l-.032.282-.023.273-.041.542-.13,2.165-.18,4.329c-.037,1.443-.092,2.886-.1,4.329-.009.463-.012.926-.017,1.389q.648.031,1.3.055c.059-.476.118-.953.172-1.429.179-1.441.316-2.883.476-4.325l.423-4.324.194-2.162.051-.539.025-.268.03-.258c.05-.357.132-.725.171-1.088a22.989,22.989,0,0,0,.056-4.357c-.112-1.449-.313-2.891-.49-4.331s-.321-2.874-.4-4.318c-.338-5.768-.6-11.537-.675-17.306q-.031-1.678-.037-3.357a19.3,19.3,0,0,0-.78-1.974Q371.017,277.588,370.937,280.252Z" transform="translate(-335.869 -271.27)" fill="#fdc9a1"/>
    <path id="Path_70" data-name="Path 70" d="M363.07,321.5c.167-1.329.289-2.659.427-3.988l.336-3.989.125-2,.091-1.995c.041-1.331.055-2.662.068-3.993-.016-2.662-.064-5.324-.161-7.985-.182-5.322-.511-10.642-.871-15.96-.232-3.118-.472-6.236-.7-9.354-.184.1-.365.21-.542.323.065,3.013.14,6.026.208,9.039.153,5.319.276,10.638.25,15.956q-.024,3.987-.231,7.974l-.174,3.987-.131,3.988-.093,3.988c-.015,1.33-.056,2.66-.056,3.99q-.014,1.458-.007,2.914l1.087.061Q362.894,322.983,363.07,321.5Z" transform="translate(-335.869 -271.27)" fill="#fdc9a1"/>
    <path id="Path_71" data-name="Path 71" d="M381.6,315.45c.063-2.981.149-5.963.283-8.943s.324-5.961.523-8.942l.61-8.945c.017-.339.032-.678.048-1.017a8.327,8.327,0,0,0-1.982-1.177l-.075-.032-.038,2.214c-.037,2.981-.127,5.962-.217,8.945s-.181,5.965-.214,8.948-.013,5.966.028,8.949l.212,8.866c.21-.051.42-.106.628-.164Z" transform="translate(-335.869 -271.27)" fill="#fdc9a1"/>
    <path id="Path_72" data-name="Path 72" d="M387.239,320.919q.168-3.025.255-6.053.045-1.936.062-3.874c-.349-.621-.706-1.237-1.029-1.854-.074-.142-.142-.285-.213-.428q.1,3.078.146,6.155.063,3.367.028,6.735A9.7,9.7,0,0,0,387.239,320.919Z" transform="translate(-335.869 -271.27)" fill="#fdc9a1"/>
    <path id="Path_73" data-name="Path 73" d="M368.159,297.544a49.956,49.956,0,0,1-.357-6.685q.1-3.353.015-6.7l-.12-3.352c-.061-1.117-.1-2.235-.183-3.352-.131-2.045-.3-4.09-.552-6.135-.112-.02-.225-.033-.339-.046-.258,2.061-.43,4.121-.564,6.182-.084,1.118-.125,2.235-.187,3.353l-.124,3.353q-.091,3.353.007,6.706c.047,1.119.14,2.243.28,3.362s.294,2.236.472,3.353c.343,2.232.732,4.46.963,6.688.126,1.114.188,2.228.213,3.342l0,.836c0,.278-.019.557-.027.835l-.031.84-.006.84c.03,2.237.11,4.472.185,6.707s.168,4.47.274,6.705h.207c.122-4.469.174-8.941.368-13.407l.045-.836.069-.836c.022-.28.054-.56.067-.84l.037-.841c.026-1.121.015-2.242-.059-3.361C368.686,302.011,368.4,299.776,368.159,297.544Z" transform="translate(-335.869 -271.27)" fill="#fdc9a1"/>
    <path id="Path_74" data-name="Path 74" d="M377.005,324.4c.082-1.491.123-2.982.185-4.473l.121-4.473.157-8.94c.036-2.981.127-5.962.217-8.944s.181-5.965.213-8.949q.018-1.686.014-3.372a12.189,12.189,0,0,1-1.209-.543q-.064,1.955-.149,3.909c-.136,2.981-.324,5.961-.524,8.942l-.609,8.945c-.073,1.492-.145,2.983-.184,4.476-.009.746-.025,1.492-.021,2.238l.027,2.238.121,4.473c.062,1.491.1,2.982.186,4.473.009.193.02.386.03.579q.7-.024,1.4-.077C376.986,324.731,377,324.564,377.005,324.4Z" transform="translate(-335.869 -271.27)" fill="#fdc9a1"/>
    <path id="Path_75" data-name="Path 75" d="M354.615,323.364l.177-7.749.078-4.515-.094-4.515-.207-9.028-.166-9.028-.128-4.513.024-1.956a27.374,27.374,0,0,1-2.159,2.307l.215,4.164.559,9.029.517,9.029.249,4.514.078,4.515.17,7.421C354.152,323.159,354.382,323.267,354.615,323.364Z" transform="translate(-335.869 -271.27)" fill="#fdc9a1"/>
    <path id="Path_76" data-name="Path 76" d="M341.7,313.513c-.153-5.32-.276-10.639-.251-15.956q.014-2.229.087-4.456c-.631.581-1.241,1.184-1.821,1.809q.033,1.326.079,2.65c.182,5.322.512,10.642.872,15.961l.078,1.041q.488.169.988.3Q341.716,314.19,341.7,313.513Z" transform="translate(-335.869 -271.27)" fill="#fdc9a1"/>
    <path id="Path_77" data-name="Path 77" d="M335.949,304.26q-.087,2.905-.031,5.81a8.751,8.751,0,0,0,2.014,2.841L338,310.96q.093-3.352-.006-6.7c-.048-1.12-.14-2.244-.281-3.362-.112-.976-.254-1.949-.406-2.922a16.641,16.641,0,0,0-1.441,2.744C335.946,301.9,335.982,303.078,335.949,304.26Z" transform="translate(-335.869 -271.27)" fill="#fdc9a1"/>
    <path id="Path_78" data-name="Path 78" d="M356.443,283.7c-.084,2.31-.129,4.623-.1,6.934s.1,4.622.207,6.932l.3,6.929.334,6.92.4,6.925c.125,1.941.271,3.882.489,5.823.153.016.307.031.46.045.226-1.956.388-3.912.506-5.868.081-1.155.114-2.311.163-3.466s.045-2.311.056-3.467a68.5,68.5,0,0,0-.356-6.935c-.245-2.308-.484-4.616-.694-6.923s-.386-4.615-.516-6.922-.19-4.615-.209-6.924l-.2-5.97q-.354.555-.707,1.112Z" transform="translate(-335.869 -271.27)" fill="#fdc9a1"/>
    <path id="Path_79" data-name="Path 79" d="M344.854,290.643c.245,2.309.484,4.616.7,6.923s.385,4.615.516,6.923.189,4.615.209,6.923l.168,4.97a8.376,8.376,0,0,1,.725.46l.141-5.426c.084-2.311.13-4.623.1-6.934s-.1-4.623-.206-6.933l-.3-6.929-.088-1.821c-.664.512-1.329,1.023-1.986,1.539C344.837,290.44,344.844,290.542,344.854,290.643Z" transform="translate(-335.869 -271.27)" fill="#fdc9a1"/>
    <path id="Path_80" data-name="Path 80" d="M351.63,311.1l-.234-4.514-.558-9.03-.518-9.029-.133-2.415q-.612.516-1.24,1.017l.029,1.4.207,9.028.166,9.028.128,4.514-.056,4.513.009,3.3c.6.646,1.176,1.313,1.783,1.944l.045-.73.231-4.515C351.545,314.113,351.617,312.608,351.63,311.1Z" transform="translate(-335.869 -271.27)" fill="#fdc9a1"/>
  </g>
</svg>
