<svg xmlns="http://www.w3.org/2000/svg" width="186.764" height="199.327" viewBox="0 0 186.764 199.327">
  <g id="product-page-1" transform="translate(-4.734 -12.318)">
    <path id="Path_2" data-name="Path 2" d="M490.779,83.769c2.9-2.251,5.731-4.7,8.614-7.232,12.2-10.743,26.844-12.291,42.571-17.185,12.54-3.9,24.806-13.905,22.348-27.487C562.387,21.23,552.422,13.275,544.611,5a90.157,90.157,0,0,1-21.972-39.82c-1.443-5.878-2.294-12.026-5.648-17.318-8.2-12.926-27.18-14.15-39.4-7.885-21.075,10.8-29.437,35.587-45.109,52.892C423.04,3.29,410.919,10.977,400.436,20.382c-14.613,13.113-39.862,56.139-4.917,71.83,18.822,8.451,48.914,5.729,67.092,3.766C474.254,94.721,482.786,89.973,490.779,83.769Z" transform="translate(-373.13 76.013)" fill="#f09d67"/>
    <path id="Path_19" data-name="Path 19" d="M494.936,114.734s5.356-6.16,12.325-4.773,19.418,1.758,19.8-7.5-.345-21.142-3.12-28.925-16.383-20.729-23.564-22.46-25.663-6.917-33.386,1.182S456.07,64.237,450.657,69.483s-5.771,21.134,3.858,28.471a153.051,153.051,0,0,1,20.278,18.792C479.3,121.557,491.053,119.983,494.936,114.734Z" transform="translate(-414.241 91.49)" fill="none" stroke="#bde0dc" stroke-miterlimit="10" stroke-width="1"/>
    <path id="Path_20" data-name="Path 20" d="M497.011,112.349s5.738-6.4,12.961-5.168,20.182,1.287,20.822-8.128.186-21.47-2.505-29.3-16.531-20.638-23.966-22.21-26.555-6.366-34.807,2.06-11.688,12.45-17.461,17.92-6.557,21.618,3.285,28.825a146.5,146.5,0,0,1,20.638,18.569C480.545,119.682,492.832,117.782,497.011,112.349Z" transform="translate(-419.199 91.061)" fill="none" stroke="#bde0dc" stroke-miterlimit="10" stroke-width="1"/>
  </g>
</svg>
