<svg xmlns="http://www.w3.org/2000/svg" width="162.396" height="364.523" viewBox="0 0 162.396 364.523">
  <g id="product-page2" transform="translate(-1339.586)">
    <path id="Path_3" data-name="Path 3" d="M31.018-47.416a42.136,42.136,0,0,1,15.445,2.991,218.211,218.211,0,0,1,52.672,29.2c10.623,7.946,21.019,17.341,27.016,30.429,13.112,28.624,1.438,63.841,3.369,96.335,1.2,20.089,7.684,40.573,2.691,59.822-2.507,9.667-7.723,18.01-11.016,27.34-3.555,10.074-4.978,21.517-10.844,29.935-14.634,21-59.2,17.356-67.646-9.566-2.851-9.09-3.035-19.019-4.854-28.475-3.243-16.855-11.918-32.159-23.857-42.082-7.821-6.5-16.846-10.679-24.9-16.769S-26.357,116.864-27.983,105.7c-1.735-11.9,3.446-23.713,9.717-33.234a104.41,104.41,0,0,1,29.5-29.888c8.348-5.489,18.431-11,20.541-22.042,2-10.454-4.3-20.286-9.814-28.783S11.15-27.953,15.111-37.589C18.015-44.656,24.193-47.263,31.018-47.416Z" transform="translate(1367.908 47.423)" fill="#50b09f"/>
    <path id="Path_5" data-name="Path 5" d="M-3.772,208.134S-1.254,194.893-9.4,188.3s-21.126-17.352-17.486-29.5,14.958-22.794,20.453-26.22,30.172-8.487,38.325-5.49,26.68,8.951,37.4,24.71S79.243,172.083,86.62,183.2s10.64,18.5,4,38.808-23.893,27.916-36.454,30.81-19.142,3.856-22.775,1.631-17.557-6.56-20.867-8.986S-10.979,226.094-3.772,208.134Z" transform="translate(1406.682 108.59)" fill="none" stroke="#f6c1c2" stroke-miterlimit="10" stroke-width="1"/>
    <path id="Path_6" data-name="Path 6" d="M-7.519,195.471s3.231-11.278-3.311-17.637-16.938-16.715-12.819-26.955,14.772-18.573,19.806-21.107,26.826-4.966,33.656-1.722,22.418,9.875,30.464,24.384S67.3,170.8,72.81,181.019s7.757,16.884.388,33.956-22.923,22.3-34.04,23.817-16.9,1.824-19.871-.391-14.7-7.078-17.375-9.443S-15.189,210.468-7.519,195.471Z" transform="translate(1419.045 108.699)" fill="none" stroke="#f6c1c2" stroke-miterlimit="10" stroke-width="1"/>
  </g>
</svg>
