<svg xmlns="http://www.w3.org/2000/svg" width="243.99" height="220.488" viewBox="0 0 243.99 220.488">
  <g id="product-page3" transform="translate(0 -434.826)">
    <path id="Path_1" data-name="Path 1" d="M582.812,307.5s-16.718-15.055-12.561-34.188,5.779-53.424-19.713-54.93-58.272-.068-79.847,7.205-57.907,44.147-63.021,63.851-20.29,70.382,1.653,92.049S441.8,412.168,456,427.334s57.954,16.919,78.635-9.262,39.283-42.794,52.754-54.97S597.088,318.456,582.812,307.5Z" transform="translate(-397.788 216.976)" fill="#c7677a"/>
    <g id="Group_1" data-name="Group 1" transform="translate(155.405 493.838)">
      <path id="Path_7" data-name="Path 7" d="M411.488,270.931c.232,9.893.131,19.788-.094,29.68-.012,4.958-.7,9.913-.847,14.835-.058,1.231-.059,2.461-.03,3.688.047,1.228.14,2.454.3,3.676.062.613.193,1.215.278,1.837l.053.484.042.468.07.928.221,3.712.309,7.418c.064,2.474.157,4.946.18,7.42.015.793.021,1.586.028,2.379q-1.107.056-2.226.1c-.1-.817-.2-1.634-.294-2.451-.306-2.47-.541-4.942-.815-7.412l-.725-7.412-.333-3.706-.088-.924-.042-.459-.052-.441c-.085-.613-.226-1.245-.293-1.866a39.348,39.348,0,0,1-.1-7.468c.193-2.483.536-4.955.841-7.423s.549-4.925.677-7.4c.581-9.886,1.034-19.773,1.159-29.661q.053-2.876.062-5.754a32.869,32.869,0,0,1,1.337-3.383Q411.353,266.362,411.488,270.931Z" transform="translate(-383.006 -255.536)" fill="#fdc9a1"/>
      <path id="Path_8" data-name="Path 8" d="M398.285,343.131c-.285-2.277-.495-4.555-.732-6.834l-.576-6.838-.214-3.419-.156-3.421c-.07-2.281-.1-4.561-.117-6.843.027-4.563.11-9.126.276-13.687.312-9.121.876-18.238,1.494-27.354.4-5.344.806-10.688,1.2-16.031.315.174.625.359.93.554-.111,5.164-.241,10.327-.357,15.49-.263,9.118-.474,18.233-.429,27.349q.04,6.833.4,13.666l.3,6.834.226,6.835.159,6.837c.027,2.278.1,4.558.1,6.838q.022,2.5.012,4.994-.931.053-1.864.1Q398.584,345.67,398.285,343.131Z" transform="translate(-356.318 -257.035)" fill="#fdc9a1"/>
      <path id="Path_9" data-name="Path 9" d="M420.82,324.833c-.107-5.109-.255-10.22-.484-15.328s-.557-10.216-.9-15.325l-1.046-15.331c-.028-.581-.053-1.161-.082-1.744a14.238,14.238,0,0,1,3.4-2.017c.043-.019.086-.036.129-.055l.067,3.795c.061,5.108.217,10.219.371,15.33s.31,10.223.365,15.337.022,10.226-.048,15.337l-.362,15.2c-.361-.089-.72-.181-1.077-.282Z" transform="translate(-410.604 -249.112)" fill="#fdc9a1"/>
      <path id="Path_10" data-name="Path 10" d="M425.542,321.709q-.287-5.184-.437-10.373-.078-3.32-.105-6.641c.6-1.063,1.209-2.12,1.762-3.177.128-.242.245-.489.365-.734q-.178,5.276-.25,10.55-.107,5.77-.049,11.544C426.381,322.509,425.951,322.12,425.542,321.709Z" transform="translate(-425 -236.615)" fill="#fdc9a1"/>
      <path id="Path_11" data-name="Path 11" d="M402.462,302.613a85.707,85.707,0,0,0,.612-11.459q-.174-5.746-.025-11.49l.2-5.745c.1-1.914.174-3.829.315-5.745.223-3.505.512-7.009.946-10.516.192-.034.386-.056.579-.077.444,3.532.738,7.064.968,10.6.143,1.915.214,3.831.321,5.747l.211,5.747q.158,5.746-.01,11.493c-.082,1.919-.241,3.844-.481,5.761-.221,1.919-.5,3.833-.808,5.747-.588,3.826-1.257,7.645-1.652,11.463-.215,1.91-.321,3.82-.365,5.729l0,1.432c0,.478.033.955.047,1.432l.052,1.439.01,1.441c-.052,3.833-.187,7.664-.316,11.495s-.288,7.661-.469,11.492h-.355c-.209-7.66-.3-15.324-.631-22.979l-.077-1.433-.119-1.432c-.037-.48-.092-.961-.114-1.441l-.062-1.441c-.046-1.92-.027-3.842.1-5.761C401.559,310.267,402.052,306.436,402.462,302.613Z" transform="translate(-369.219 -257.581)" fill="#fdc9a1"/>
      <path id="Path_12" data-name="Path 12" d="M413.748,341.113c-.141-2.555-.212-5.111-.318-7.667l-.208-7.665-.269-15.322c-.062-5.109-.217-10.219-.371-15.331s-.31-10.223-.365-15.337q-.029-2.89-.024-5.779a20.651,20.651,0,0,0,2.072-.931q.109,3.351.255,6.7c.232,5.108.555,10.216.9,15.325l1.046,15.331c.125,2.556.248,5.112.315,7.67.015,1.279.043,2.558.034,3.836l-.045,3.836-.208,7.665c-.105,2.556-.175,5.112-.318,7.667-.015.331-.036.661-.052.992q-1.2-.042-2.4-.132C413.779,341.687,413.762,341.4,413.748,341.113Z" transform="translate(-395.665 -250.06)" fill="#fdc9a1"/>
      <path id="Path_13" data-name="Path 13" d="M386,340.823l-.3-13.281-.134-7.738.162-7.738.355-15.472.284-15.474.22-7.735-.042-3.352a46.785,46.785,0,0,0,3.7,3.952l-.37,7.137-.958,15.477-.887,15.475-.426,7.737-.134,7.737-.291,12.72Q386.6,340.574,386,340.823Z" transform="translate(-329.544 -251.539)" fill="#fdc9a1"/>
      <path id="Path_14" data-name="Path 14" d="M371.282,317.756c.263-9.117.474-18.233.431-27.347q-.024-3.819-.15-7.636c1.083,1,2.128,2.029,3.122,3.1q-.058,2.273-.137,4.542c-.312,9.123-.876,18.239-1.494,27.354-.043.6-.089,1.191-.134,1.785-.557.195-1.121.365-1.692.521Q371.255,318.917,371.282,317.756Z" transform="translate(-292.691 -245.356)" fill="#fdc9a1"/>
      <path id="Path_15" data-name="Path 15" d="M370.386,299.171q.151,4.979.053,9.959a15.025,15.025,0,0,1-3.45,4.867l-.123-3.342q-.158-5.748.01-11.493c.082-1.919.241-3.845.481-5.761.193-1.672.437-3.34.7-5.008a28.325,28.325,0,0,1,2.469,4.7C370.393,295.122,370.329,297.146,370.386,299.171Z" transform="translate(-281.937 -242.629)" fill="#fdc9a1"/>
      <path id="Path_16" data-name="Path 16" d="M395.218,275.268c.144,3.96.223,7.924.174,11.885s-.177,7.923-.354,11.881l-.517,11.876-.573,11.861-.676,11.867c-.214,3.326-.465,6.653-.839,9.981-.261.027-.524.053-.787.076-.388-3.352-.665-6.7-.867-10.057-.14-1.98-.2-3.96-.279-5.941-.059-1.98-.077-3.961-.1-5.943a116.635,116.635,0,0,1,.609-11.885c.42-3.955.829-7.911,1.19-11.866s.661-7.909.885-11.863.324-7.911.358-11.867l.345-10.232q.608.951,1.212,1.906Z" transform="translate(-341.895 -253.96)" fill="#fdc9a1"/>
      <path id="Path_17" data-name="Path 17" d="M381.519,280.969c-.419,3.957-.829,7.912-1.19,11.866s-.661,7.909-.885,11.864-.324,7.909-.358,11.867l-.287,8.517a13.989,13.989,0,0,0-1.245.789l-.241-9.3c-.144-3.96-.223-7.923-.174-11.884s.177-7.922.353-11.882l.517-11.876.151-3.121c1.138.878,2.277,1.753,3.4,2.638C381.55,280.62,381.538,280.795,381.519,280.969Z" transform="translate(-308.333 -247.765)" fill="#fdc9a1"/>
      <path id="Path_18" data-name="Path 18" d="M381.88,317.539l.4-7.738.958-15.475.887-15.475.229-4.141q1.049.884,2.125,1.744l-.051,2.4-.355,15.474-.284,15.472-.22,7.737.1,7.737-.015,5.66c-1.022,1.107-2.017,2.25-3.058,3.331-.025-.417-.049-.833-.077-1.251l-.4-7.74C382.024,322.7,381.9,320.119,381.88,317.539Z" transform="translate(-320.306 -249.269)" fill="#fdc9a1"/>
    </g>
  </g>
</svg>
