<svg xmlns="http://www.w3.org/2000/svg" width="30" height="30" viewBox="0 0 30 30"><defs><style>.a{fill:#fff;}</style></defs><path class="a" d="M9.375,18.75h.7v.938a.937.937,0,0,0,.938.938h2.344a.937.937,0,0,0,.938-.937V18.75H15a1.875,1.875,0,0,0,1.875-1.875V3.75A1.875,1.875,0,0,0,15,1.875V.938A.937.937,0,0,0,14.063,0h-3.75a.937.937,0,0,0-.937.938v.938A1.875,1.875,0,0,0,7.5,3.75V16.875A1.875,1.875,0,0,0,9.375,18.75Zm17.813,7.5h-.076A11.231,11.231,0,0,0,18.75,7.5v3.75a7.5,7.5,0,0,1,0,15H2.813A2.812,2.812,0,0,0,0,29.063.937.937,0,0,0,.938,30H29.063A.937.937,0,0,0,30,29.063,2.812,2.812,0,0,0,27.188,26.25ZM6.094,24.375H18.281a.469.469,0,0,0,.469-.469v-.937a.469.469,0,0,0-.469-.469H6.094a.469.469,0,0,0-.469.469v.938A.469.469,0,0,0,6.094,24.375Z"/></svg>