<?xml version="1.0" encoding="utf-8"?>
<!-- Generator: Adobe Illustrator 25.4.1, SVG Export Plug-In . SVG Version: 6.00 Build 0)  -->
<svg version="1.1" id="Layer_1" xmlns:svgjs="http://svgjs.com/svgjs"
	 xmlns="http://www.w3.org/2000/svg" xmlns:xlink="http://www.w3.org/1999/xlink" x="0px" y="0px" viewBox="0 0 275 512"
	 style="enable-background:new 0 0 275 512;" xml:space="preserve">
<style type="text/css">
	.st0{fill:#BDE0DC;}
</style>
<g>
	<g>
		<ellipse class="st0" cx="137" cy="59.7" rx="59.4" ry="59.7"/>
		<path class="st0" d="M264.4,305l-14.9-104.3c-5.5-35.9-37.3-65.1-71.1-65.1h-5.2c-11,5.3-23.3,8.3-36.3,8.3s-25.3-3-36.3-8.3h-5.2
			c-33.7,0-65.6,29.2-71.1,65.2L9.6,305c-0.5,3.8,1.2,7.5,4.4,9.5l42.7,26.4l19.9,139.5c2.3,17.7,17.2,31.5,34,31.5h52.7
			c16.7,0,31.7-13.9,34-31.4l19.9-139.6l42.7-26.5C263.2,312.5,264.9,308.7,264.4,305z"/>
	</g>
</g>
</svg>
