<svg xmlns="http://www.w3.org/2000/svg" width="22" height="22" viewBox="0 0 22 22"><defs><style>.a{fill:none;stroke:#2a4752;stroke-linecap:round;stroke-linejoin:round;stroke-width:2px;}</style></defs><g transform="translate(-0.5 -0.5)"><path class="a" d="M14.069,31.035A1.035,1.035,0,1,1,13.035,30,1.035,1.035,0,0,1,14.069,31.035Z" transform="translate(-4.224 -10.569)"/><path class="a" d="M30.569,31.035A1.035,1.035,0,1,1,29.535,30,1.035,1.035,0,0,1,30.569,31.035Z" transform="translate(-11.139 -10.569)"/><path class="a" d="M1.5,1.5H5.136L7.573,13.812a1.823,1.823,0,0,0,1.818,1.48h8.836a1.823,1.823,0,0,0,1.818-1.48L21.5,6.1H6.045"/></g></svg>