<svg xmlns="http://www.w3.org/2000/svg" width="215" height="48" viewBox="0 0 215 48">
  <path id="logo-green" d="M81.435,54.7a1.643,1.643,0,1,1-3.284,0V21.474a1.643,1.643,0,1,1,3.284,0V36.581c1.744-2.962,5.377-4.366,8.761-4.366,6.62,0,11.9,4.717,11.9,12.145s-5.277,12.3-11.9,12.3c-3.384,0-7.017-1.556-8.761-4.517ZM90.2,35.577a8.585,8.585,0,0,0-8.761,8.782c0,5.772,4.032,8.935,8.761,8.935,4.829,0,8.56-3.715,8.56-8.935C98.756,38.989,95.024,35.577,90.2,35.577ZM108.514,54.7a1.643,1.643,0,1,1-3.284,0V21.474a1.643,1.643,0,1,1,3.284,0Zm3.14-10.339a12.144,12.144,0,1,1,24.289,0,12.145,12.145,0,1,1-24.289,0Zm21,0a8.86,8.86,0,0,0-17.72,0,8.861,8.861,0,1,0,17.72,0Zm5.827,0a12.144,12.144,0,1,1,24.289,0,12.145,12.145,0,1,1-24.289,0Zm21.005,0a8.86,8.86,0,0,0-17.72,0,8.861,8.861,0,1,0,17.72,0Zm9.609-7.778c1.443-3.061,5.573-4.366,7.714-4.366,3.934,0,6.72,1.856,8.064,5.119a9.1,9.1,0,0,1,8.611-5.119c5.674,0,9.008,3.915,8.959,10.287V54.7a1.644,1.644,0,1,1-3.285,0V42.5c0-4.315-2.09-6.975-5.674-6.975-3.684,0-7.714,2.107-7.714,7.828V54.7a1.644,1.644,0,1,1-3.285,0V42.5c0-4.315-2.091-6.975-5.675-6.975-3.682,0-7.714,2.107-7.714,7.828V54.7a1.644,1.644,0,0,1-1.642,1.707,1.606,1.606,0,0,1-1.595-1.707V34.171a1.607,1.607,0,0,1,1.595-1.707,1.645,1.645,0,0,1,1.642,1.707ZM210.205,54.7a1.643,1.643,0,1,1-3.284,0V21.474a1.643,1.643,0,1,1,3.284,0Zm11.748,11.9a1.7,1.7,0,0,1-2.091,1.1,1.635,1.635,0,0,1-.945-2.21l3.831-9.384-8.759-21.43a1.633,1.633,0,0,1,1.094-2.158c.846-.2,1.593.05,2.091,1.3l7.366,17.967,7.465-17.967c.5-1.255,1.245-1.507,2.091-1.3a1.67,1.67,0,0,1,1.1,2.158ZM39.107,28.715a1.516,1.516,0,0,0-1.508,1.52v1.772a1.508,1.508,0,1,0,3.015,0V30.235A1.516,1.516,0,0,0,39.107,28.715Zm0-8.948a19.008,19.008,0,0,0-5.868,37.027,1.522,1.522,0,0,0,.941-2.9,15.806,15.806,0,1,1,9.843,0,1.5,1.5,0,0,0-.877.758,1.529,1.529,0,0,0-.089,1.164,1.51,1.51,0,0,0,1.436,1.05,1.53,1.53,0,0,0,.47-.076,19.008,19.008,0,0,0-5.857-37.031Zm9.751,22.284a1.524,1.524,0,0,0-1.5-2.372A12.186,12.186,0,0,0,40.618,43.4v-.389c0-4.212,3.694-7.392,7.264-8.032a1.5,1.5,0,0,0,.975-.627,1.524,1.524,0,0,0-1.5-2.372,12.211,12.211,0,0,0-8.273,5.8,12.236,12.236,0,0,0-8.22-5.7,1.523,1.523,0,0,0-.529,3C33.9,35.72,37.6,38.9,37.6,43.11V43.5a12.2,12.2,0,0,0-6.737-3.724,1.523,1.523,0,0,0-.529,3c3.573.64,7.266,3.818,7.266,8.03V62.721a1.511,1.511,0,1,0,3.021,0V50.709c0-4.212,3.694-7.392,7.264-8.032A1.5,1.5,0,0,0,48.858,42.051ZM40.618,31.944V30.169a1.511,1.511,0,1,0-3.021,0v1.776a1.511,1.511,0,1,0,3.021,0Z" transform="translate(-20.28 -19.767)" fill="#50b09f"/>
</svg>
