<svg xmlns="http://www.w3.org/2000/svg" width="22.857" height="30" viewBox="0 0 22.857 30"><defs><style>.a{fill:#fff;}</style></defs><path class="a" d="M26,11.5H24.571V8.643a7.143,7.143,0,0,0-14.286,0V11.5H8.857A2.866,2.866,0,0,0,6,14.357V28.643A2.866,2.866,0,0,0,8.857,31.5H26a2.866,2.866,0,0,0,2.857-2.857V14.357A2.866,2.866,0,0,0,26,11.5ZM17.429,24.357A2.857,2.857,0,1,1,20.286,21.5,2.866,2.866,0,0,1,17.429,24.357ZM21.857,11.5H13V8.643a4.429,4.429,0,1,1,8.857,0Z" transform="translate(-6 -1.5)"/></svg>