<svg xmlns="http://www.w3.org/2000/svg" width="263.88" height="395.185" viewBox="0 0 263.88 395.185">
  <g id="Group_49" data-name="Group 49" transform="translate(-1116.536 -4557.271)">
    <path id="Path_83" data-name="Path 83" d="M80.161,299.878s-4.24,13.942-15.352,16.158-28.942,6-31.557,19.458,2.872,29.335,6.412,35.375S64.286,394.149,73.6,395.375s30.04,4.83,48.22-4.871,19.714-14.417,32.357-21.35,19.481-12.372,23.318-35.147-8.853-38.726-19.425-47.805-16.391-13.306-20.985-13-20.1-2.537-24.49-1.877S82.282,279.065,80.161,299.878Z" transform="translate(1102.431 4286.046)" fill="#f39163" opacity="0.9"/>
    <g id="Group_29" data-name="Group 29" transform="matrix(0.985, -0.174, 0.174, 0.985, 1926.426, 4162.99)">
      <path id="Path_3" data-name="Path 3" d="M111.481.008A45.581,45.581,0,0,0,94.774,3.244,236.051,236.051,0,0,0,37.8,34.833C26.3,43.429,15.057,53.592,8.571,67.75c-14.184,30.964-1.555,69.06-3.644,104.211-1.293,21.731-8.312,43.89-2.911,64.713,2.712,10.457,8.355,19.483,11.917,29.575,3.846,10.9,5.385,23.276,11.731,32.383,15.83,22.717,64.044,18.775,73.177-10.349,3.084-9.834,3.283-20.574,5.25-30.8,3.508-18.234,12.892-34.788,25.807-45.522,8.46-7.032,18.223-11.553,26.935-18.14s16.715-16.1,18.473-28.172c1.877-12.878-3.727-25.652-10.511-35.951a112.946,112.946,0,0,0-31.916-32.331c-9.03-5.938-19.938-11.9-22.22-23.844-2.161-11.308,4.655-21.945,10.616-31.136s11.7-21.322,7.414-31.745C125.547,2.994,118.865.173,111.481.008Z" transform="translate(-778.179 306.777) rotate(28)" fill="#f6c1c2"/>
      <path id="Path_5" data-name="Path 5" d="M74.777,211.736s-2.629-13.823,5.88-20.7,22.055-18.115,18.254-30.8-15.616-23.8-21.352-27.373-31.5-8.86-40.01-5.732S9.7,136.477-1.5,152.929-11.889,174.1-19.59,185.7s-11.108,19.317-4.172,40.514S1.182,255.359,14.294,258.38s19.984,4.025,23.776,1.7S56.4,253.234,59.854,250.7,82.3,230.486,74.777,211.736Z" transform="translate(-769.87 375.113)" fill="none" stroke="#bde0dc" stroke-miterlimit="10" stroke-width="1"/>
      <path id="Path_6" data-name="Path 6" d="M64.572,198.5s-3.373-11.774,3.456-18.412,17.683-17.45,13.382-28.14S65.99,132.562,60.734,129.916s-28.006-5.184-35.135-1.8S2.2,138.428-6.2,153.575s-7.327,19.176-13.083,29.841-8.1,17.626-.405,35.448,23.931,23.285,35.536,24.864,17.643,1.9,20.745-.408,15.345-7.389,18.139-9.858S72.58,214.16,64.572,198.5Z" transform="translate(-768.661 375.24)" fill="none" stroke="#bde0dc" stroke-miterlimit="10" stroke-width="1"/>
    </g>
  </g>
</svg>
