<svg xmlns="http://www.w3.org/2000/svg" width="308.532" height="317.532" viewBox="0 0 308.532 317.532">
  <g id="Group_407" data-name="Group 407" transform="translate(-386.033 -3689.126)">
    <path id="Path_81" data-name="Path 81" d="M171.126,155.046s-23.322,8.515-29.743,27.569-23.254,51.308-47.359,44.443-53.3-18.817-69.136-32.538-29.347-59.613-23.5-79.5,19.049-71.7,50.68-84.645,46.073-17.866,67.149-27.3,62.011,3.12,66.929,34.047,13.046,52.328,18.858,67.96S190.026,149.538,171.126,155.046Z" transform="translate(532.505 3996.833) rotate(-135)" fill="none" stroke="#50b09f" stroke-width="1"/>
    <path id="Path_290" data-name="Path 290" d="M171.126,155.046s-23.322,8.515-29.743,27.569-23.254,51.308-47.359,44.443-53.3-18.817-69.136-32.538-29.347-59.613-23.5-79.5,19.049-71.7,50.68-84.645,46.073-17.866,67.149-27.3,62.011,3.12,66.929,34.047,13.046,52.328,18.858,67.96S190.026,149.538,171.126,155.046Z" transform="translate(532.505 4005.833) rotate(-135)" fill="none" stroke="#50b09f" stroke-width="1"/>
  </g>
</svg>
