<svg xmlns="http://www.w3.org/2000/svg" width="256.944" height="304.601" viewBox="0 0 256.944 304.601">
  <g id="Group_22" data-name="Group 22" transform="translate(-369.68 -217.864)">
    <path id="Path_52" data-name="Path 52" d="M488.606,262.813s-19.451,23.941-68.531,30.338S368.4,319.745,370,342.871s5.888,39.543,4.045,57.322,1.458,48.569,15.149,60.968,42.293,54.607,74.93,48.971c53.23-9.191,34.025-40.68,58.176-66.63s34.51-37.664,84.332-70.971c30.195-20.186,20.723-61.4,7.069-83.783s-27.446-33.789-41.037-32.7-16.954,1.4-31.756-3.458S498.485,249.36,488.606,262.813Z" transform="translate(0 11.818)" fill="#50b09f"/>
    <path id="Path_53" data-name="Path 53" d="M476.88,239.983s-1.972,9.824-9.429,12.082-19.409,6.038-20.3,15.422,3.921,19.886,6.746,23.784,18.4,14.29,24.859,14.509,20.881,1.3,32.677-6.551,12.531-11.181,20.722-16.77,12.507-9.767,13.615-25.61-8.643-25.913-16.484-31.422-12.105-8.014-15.228-7.5-13.928-.4-16.887.349S476.944,225.6,476.88,239.983Z" transform="translate(28.37 0)" fill="#f6c1c2"/>
  </g>
</svg>
