<svg xmlns="http://www.w3.org/2000/svg" width="186.764" height="199.327" viewBox="0 0 186.764 199.327">
  <g id="Group_411" data-name="Group 411" transform="translate(-1257.484 -130.109)" opacity="0.9">
    <path id="Path_2" data-name="Path 2" d="M451.714,83.769c-2.9-2.251-5.731-4.7-8.614-7.232-12.2-10.743-26.844-12.291-42.571-17.185-12.54-3.9-24.806-13.905-22.348-27.487C380.105,21.23,390.07,13.275,397.881,5a90.158,90.158,0,0,0,21.972-39.82c1.443-5.878,2.293-12.026,5.648-17.318,8.2-12.926,27.18-14.15,39.4-7.885,21.075,10.8,29.437,35.587,45.109,52.892,9.443,10.426,21.564,18.113,32.046,27.518,14.613,13.113,39.862,56.139,4.917,71.83-18.822,8.451-48.914,5.729-67.092,3.766C468.238,94.721,459.707,89.973,451.714,83.769Z" transform="translate(879.62 193.805)" fill="#f09d67"/>
    <path id="Path_19" data-name="Path 19" d="M479.093,114.734s-5.356-6.16-12.325-4.773-19.418,1.758-19.8-7.5.345-21.142,3.12-28.925,16.383-20.729,23.564-22.46,25.663-6.917,33.386,1.182,10.924,11.977,16.337,17.224,5.771,21.134-3.858,28.471a153.051,153.051,0,0,0-20.278,18.792C494.732,121.557,482.976,119.983,479.093,114.734Z" transform="translate(889.195 209.282)" fill="none" stroke="#bde0dc" stroke-miterlimit="10" stroke-width="1"/>
    <path id="Path_20" data-name="Path 20" d="M481.845,112.349s-5.738-6.4-12.961-5.168-20.182,1.287-20.822-8.128-.186-21.47,2.505-29.3S467.1,49.11,474.533,47.537s26.555-6.366,34.807,2.06,11.688,12.45,17.461,17.92,6.557,21.618-3.285,28.825a146.5,146.5,0,0,0-20.638,18.569C498.311,119.682,486.024,117.782,481.845,112.349Z" transform="translate(889.325 208.853)" fill="none" stroke="#bde0dc" stroke-miterlimit="10" stroke-width="1"/>
  </g>
</svg>
