<svg xmlns="http://www.w3.org/2000/svg" width="210.353" height="224.44" viewBox="0 0 210.353 224.44">
  <g id="Group_411" data-name="Group 411" transform="translate(-1257.484 -130.109)" opacity="0.9">
    <path id="Path_2" data-name="Path 2" d="M461.041,102.394c-3.268-2.536-6.455-5.288-9.7-8.146-13.743-12.1-30.234-13.843-47.948-19.356-14.124-4.394-27.939-15.662-25.171-30.959C380.388,31.957,391.612,23,400.409,13.671a101.545,101.545,0,0,0,24.748-44.85c1.625-6.621,2.583-13.545,6.362-19.506,9.232-14.559,30.613-15.937,44.376-8.881C499.632-47.4,509.05-19.483,526.7.007c10.635,11.743,24.287,20.4,36.093,30.994,16.458,14.769,44.9,63.229,5.538,80.9-21.2,9.518-55.092,6.453-75.566,4.242C479.653,114.73,470.044,109.382,461.041,102.394Z" transform="translate(879.62 193.805)" fill="#f09d67"/>
    <path id="Path_19" data-name="Path 19" d="M483.163,123.182s-6.032-6.938-13.881-5.375-21.871,1.98-22.305-8.447.389-23.813,3.514-32.578,18.453-23.347,26.541-25.3,28.9-7.79,37.6,1.331,12.3,13.49,18.4,19.4,6.5,23.8-4.345,32.067a172.378,172.378,0,0,0-22.839,21.165C500.778,130.868,487.536,129.095,483.163,123.182Z" transform="translate(899.12 225.324)" fill="none" stroke="#c7677a" stroke-miterlimit="10" stroke-width="1"/>
    <path id="Path_20" data-name="Path 20" d="M486.144,120.886s-6.463-7.206-14.6-5.82-22.731,1.449-23.452-9.155-.209-24.182,2.822-33.006,18.619-23.244,26.993-25.016,29.909-7.17,39.2,2.32,13.164,14.023,19.666,20.183,7.385,24.349-3.7,32.466a165.009,165.009,0,0,0-23.244,20.914C504.691,129.146,490.851,127.006,486.144,120.886Z" transform="translate(899.385 224.451)" fill="none" stroke="#c7677a" stroke-miterlimit="10" stroke-width="1"/>
  </g>
</svg>
